<svg width="137" height="159" viewBox="0 0 137 159" fill="none" xmlns="http://www.w3.org/2000/svg">
<g clip-path="url(#clip0_1_47218)">
<path d="M0 10.7452V148.255C0 154.19 4.82045 159 10.7679 159H124.349C130.296 159 135.117 154.19 135.117 148.255V17.8577L117.221 0H10.7679C4.82045 0 0 4.81028 0 10.7452Z" fill="#F0F0F0"/>
<path d="M137 19.7369L117.222 0L118.027 16.0823C118.102 17.5824 119.381 18.8584 120.884 18.9331L137 19.7369Z" fill="#CBCFEB"/>
<path d="M37.0168 23.0416C21.0905 39.2223 21.3243 65.2204 37.5411 81.1113C53.7578 97.0022 79.8145 96.7688 95.7426 80.5881C111.669 64.4074 111.435 38.4093 95.2184 22.5184C79.0016 6.62753 52.9449 6.86085 37.0186 23.0416H37.0168Z" fill="#E3E1D5"/>
<path d="M97.6331 96.8947L90.8546 98.1415C74.6853 101.116 58.0905 101.116 41.9213 98.1415L35.1445 96.8947L39.6051 80.1508C40.6701 76.1535 44.0749 73.1641 48.256 72.5553L51.5348 72.0777C61.3839 70.6414 71.3956 70.6414 81.2447 72.0777L84.5235 72.5553C88.7046 73.1641 92.1094 76.1553 93.1744 80.1508L97.635 96.8947H97.6331Z" fill="#94BAE8"/>
<path d="M80.6526 66.7263C80.6526 74.4275 74.2612 81.9792 66.3776 81.9792C58.4939 81.9792 52.1025 74.4275 52.1025 66.7263C52.1025 59.0251 58.4939 52.7803 66.3776 52.7803C74.2612 52.7803 80.6526 59.0233 80.6526 66.7263Z" fill="#BFD6F2"/>
<path d="M66.3774 77.9345C73.4058 77.9345 79.1035 72.3681 79.1035 65.5015C79.1035 58.6348 73.4058 53.0684 66.3774 53.0684C59.349 53.0684 53.6514 58.6348 53.6514 65.5015C53.6514 72.3681 59.349 77.9345 66.3774 77.9345Z" fill="#C76534"/>
<path d="M74.3741 71.5965L74.3449 71.6257C70.2459 75.6175 63.6098 75.6048 59.5273 71.5965L60.6672 62.5063H73.2343L74.3741 71.5965Z" fill="#C76534"/>
<g style="mix-blend-mode:multiply" opacity="0.68">
<path d="M72.8401 59.3584C71.0738 59.9435 69.0773 60.2753 66.9511 60.2753C64.8249 60.2753 62.8284 59.9435 61.0621 59.3584L60.0977 67.0505C62.0868 67.7996 69.1285 69.4146 74.0092 68.68L72.8401 59.3584Z" fill="#FAA949"/>
</g>
<path d="M66.434 66.3195C57.732 66.3195 50.6758 59.4277 50.6758 50.9245V26.8184H82.1922V50.9245C82.1922 59.4258 75.1379 66.3195 66.434 66.3195Z" fill="#C76534"/>
<path d="M64.0469 57.2294C65.7986 57.6979 67.638 57.727 69.4043 57.3132L69.766 57.2294L70.2135 56.1357" stroke="white" stroke-width="4.12" stroke-miterlimit="10" stroke-linecap="round"/>
<path d="M50.8092 52.7983L45.8536 42.6509C44.1676 39.1148 44.122 35.0409 45.7294 31.4701C48.1844 26.0127 52.5792 21.6107 58.1011 19.0753C61.8256 17.3655 66.1163 17.2707 69.9175 18.8146L74.2557 20.5754C78.4606 22.2833 83.1495 22.4838 87.4914 21.1441L89.0659 20.6574L82.1924 37.2993V28.6557L77.8925 30.8048C71.5633 33.9673 64.1088 34.1587 57.6189 31.3243L56.2781 32.4872C52.0367 36.1637 50.1918 41.3313 50.6777 46.8506L50.8111 52.7965L50.8092 52.7983Z" fill="#473925"/>
<path d="M94.1337 99.578C103.402 99.578 110.915 92.0806 110.915 82.8322C110.915 73.5838 103.402 66.0864 94.1337 66.0864C84.8657 66.0864 77.3525 73.5838 77.3525 82.8322C77.3525 92.0806 84.8657 99.578 94.1337 99.578Z" fill="#F2456A"/>
<path d="M86.9199 75.1182L102.079 90.2471" stroke="white" stroke-width="5" stroke-miterlimit="10"/>
<path d="M86.9199 90.2471L102.079 75.1182" stroke="white" stroke-width="5" stroke-miterlimit="10"/>
<path d="M24.8818 123.041L29.5799 118.644L36.9357 125.527L54.5954 108.252L59.2953 112.649L36.9357 134.318L24.8818 123.041Z" fill="#F2456A"/>
<path d="M62.0791 121.285H113.887" stroke="#D3DDF5" stroke-width="4" stroke-miterlimit="10"/>
<path d="M62.1543 131.549H101.775" stroke="#D3DDF5" stroke-width="4" stroke-miterlimit="10"/>
</g>
<defs>
<clipPath id="clip0_1_47218">
<rect width="137" height="159" fill="white"/>
</clipPath>
</defs>
</svg>
