<svg width="190" height="153" viewBox="0 0 190 153" fill="none" xmlns="http://www.w3.org/2000/svg">
<path d="M95 152.885C147.467 152.885 190 150.402 190 147.338C190 144.275 147.467 141.792 95 141.792C42.5329 141.792 0 144.275 0 147.338C0 150.402 42.5329 152.885 95 152.885Z" fill="#F5F5F5"/>
<path d="M147.098 2.00887V139.92C147.098 140.206 147.041 140.488 146.931 140.751C146.821 141.015 146.659 141.253 146.456 141.454C146.253 141.654 146.011 141.811 145.746 141.917C145.481 142.024 145.198 142.076 144.913 142.071H70.8099C70.5514 142.075 70.2948 142.027 70.0552 141.93C69.8156 141.833 69.598 141.689 69.4152 141.506C69.2324 141.323 69.0882 141.106 68.9911 140.866C68.894 140.626 68.8461 140.37 68.85 140.111V1.83248C68.8409 1.60362 68.877 1.3752 68.9563 1.16034C69.0356 0.945469 69.1566 0.748386 69.3123 0.580398C69.468 0.412411 69.6553 0.276824 69.8636 0.181428C70.0718 0.0860318 70.2968 0.0327034 70.5257 0.0244999H88.1401C88.412 0.0298446 88.6761 0.116147 88.8986 0.272377C89.1212 0.428608 89.2921 0.647667 89.3895 0.901544L90.198 2.86142C90.2972 3.11422 90.4696 3.33173 90.693 3.48619C90.9164 3.64065 91.1807 3.72506 91.4523 3.72866H124.579C124.848 3.72658 125.111 3.6444 125.334 3.49258C125.556 3.34076 125.728 3.12616 125.828 2.87612L126.637 0.881945C126.734 0.627524 126.905 0.407788 127.127 0.250726C127.35 0.0936643 127.614 0.0063841 127.886 0H145.202C145.719 0.0166512 146.209 0.237218 146.564 0.613571C146.919 0.989924 147.111 1.49151 147.098 2.00887Z" fill="#263238"/>
<path d="M147.102 9.22607H68.8594V132.291H147.102V9.22607Z" fill="#4ECA6E"/>
<path opacity="0.7" d="M147.102 9.22607H68.8594V132.291H147.102V9.22607Z" fill="white"/>
<path opacity="0.6" d="M78.101 5.95801H79.1152V4.61059H78.101V5.95801Z" fill="white"/>
<path opacity="0.6" d="M76.4496 5.95801H77.4639V4.15982H76.4496V5.95801Z" fill="white"/>
<path opacity="0.6" d="M74.7983 5.95801H75.8125V3.70905H74.7983V5.95801Z" fill="white"/>
<path opacity="0.6" d="M73.1469 5.95801H74.1611V3.25828H73.1469V5.95801Z" fill="white"/>
<path opacity="0.6" d="M138.033 4.11572H137.436V5.46314H138.033V4.11572Z" fill="white"/>
<path opacity="0.6" d="M138.445 5.95801L143.228 5.95801V3.62086L138.445 3.62086V5.95801Z" fill="white"/>
<path d="M104.108 21.4457H129.856C129.933 21.4529 130.01 21.4441 130.083 21.4197C130.156 21.3953 130.224 21.3559 130.281 21.304C130.338 21.2521 130.383 21.1888 130.414 21.1183C130.446 21.0478 130.462 20.9716 130.462 20.8945C130.462 20.8174 130.446 20.7411 130.414 20.6706C130.383 20.6001 130.338 20.5369 130.281 20.485C130.224 20.4331 130.156 20.3937 130.083 20.3693C130.01 20.3449 129.933 20.336 129.856 20.3433H104.108C103.971 20.3562 103.843 20.4199 103.751 20.5218C103.658 20.6238 103.606 20.7567 103.606 20.8945C103.606 21.0323 103.658 21.1652 103.751 21.2671C103.843 21.3691 103.971 21.4327 104.108 21.4457Z" fill="#263238"/>
<path d="M135.716 23.4893H103.966C103.909 23.483 103.852 23.4888 103.797 23.5062C103.743 23.5237 103.693 23.5524 103.65 23.5906C103.607 23.6287 103.573 23.6754 103.55 23.7276C103.527 23.7798 103.515 23.8363 103.515 23.8935C103.515 23.9507 103.527 24.0072 103.55 24.0594C103.573 24.1116 103.607 24.1583 103.65 24.1964C103.693 24.2345 103.743 24.2633 103.797 24.2807C103.852 24.2982 103.909 24.304 103.966 24.2977H135.716C135.815 24.2867 135.907 24.2394 135.974 24.1648C136.041 24.0902 136.078 23.9936 136.078 23.8935C136.078 23.7933 136.041 23.6967 135.974 23.6221C135.907 23.5476 135.815 23.5002 135.716 23.4893Z" fill="#263238"/>
<path d="M126.402 25.8066H103.966C103.909 25.8004 103.852 25.8062 103.797 25.8236C103.743 25.8411 103.693 25.8698 103.65 25.908C103.607 25.9461 103.573 25.9928 103.55 26.045C103.527 26.0972 103.515 26.1537 103.515 26.2109C103.515 26.268 103.527 26.3246 103.55 26.3768C103.573 26.4289 103.607 26.4756 103.65 26.5138C103.693 26.5519 103.743 26.5807 103.797 26.5981C103.852 26.6156 103.909 26.6214 103.966 26.6151H126.402C126.501 26.6041 126.593 26.5568 126.66 26.4822C126.727 26.4076 126.764 26.311 126.764 26.2109C126.764 26.1107 126.727 26.0141 126.66 25.9395C126.593 25.8649 126.501 25.8176 126.402 25.8066Z" fill="#263238"/>
<path d="M146.167 40.7998H69.791V117.176H146.167V40.7998Z" fill="#4ECA6E"/>
<path d="M143.707 125.437L141.556 123.58L139.4 125.437V120.332H143.707V125.437Z" fill="#4ECA6E"/>
<path d="M135.937 120.332H132.693C132.48 120.332 132.276 120.416 132.125 120.567C131.974 120.718 131.89 120.922 131.89 121.135V123.35C131.89 123.563 131.974 123.767 132.125 123.918C132.276 124.069 132.48 124.153 132.693 124.153H133.796V125.437L134.633 124.153H135.937C136.042 124.154 136.147 124.134 136.245 124.093C136.343 124.053 136.432 123.994 136.506 123.919C136.581 123.845 136.64 123.756 136.68 123.658C136.721 123.56 136.741 123.455 136.74 123.35V121.135C136.741 121.029 136.721 120.925 136.68 120.827C136.64 120.729 136.581 120.64 136.506 120.565C136.432 120.491 136.343 120.432 136.245 120.391C136.147 120.351 136.042 120.331 135.937 120.332Z" fill="#4ECA6E"/>
<path d="M129.434 120.939C128.837 119.959 127.68 120.326 127.083 121.086C126.49 120.321 125.338 119.934 124.726 120.914C123.702 122.561 125.789 124.104 126.779 124.712L127.058 124.883L127.342 124.712C128.317 124.119 130.444 122.6 129.434 120.939Z" fill="#4ECA6E"/>
<g opacity="0.3">
<path opacity="0.7" d="M130.571 47.228H133.462L132.017 50.9763L130.571 47.228Z" fill="white"/>
<path opacity="0.7" d="M139.886 65.8857L140.763 68.6394L136.755 68.3944L139.886 65.8857Z" fill="white"/>
<path d="M138.759 53.8032L137.387 57.1693L141.556 58.6245V55.9003L138.759 53.8032Z" fill="white"/>
<path d="M84.6953 46.3267H86.8169L84.6953 49.1048V46.3267Z" fill="white"/>
<path d="M76.7188 60.0209L79.1196 59.4722L79.7909 61.5349L77.0225 62.5002L76.7188 60.0209Z" fill="white"/>
<path d="M101.011 49.1046C101.528 49.1046 101.947 48.6856 101.947 48.1688C101.947 47.6519 101.528 47.2329 101.011 47.2329C100.494 47.2329 100.075 47.6519 100.075 48.1688C100.075 48.6856 100.494 49.1046 101.011 49.1046Z" fill="white"/>
<path d="M87.3751 110.919C87.3751 111.286 87.2661 111.646 87.0618 111.951C86.8575 112.257 86.5672 112.495 86.2276 112.635C85.888 112.775 85.5144 112.812 85.154 112.74C84.7937 112.668 84.4628 112.491 84.2033 112.23C83.9438 111.97 83.7673 111.639 83.6962 111.278C83.6251 110.918 83.6626 110.544 83.8039 110.205C83.9452 109.866 84.184 109.576 84.49 109.373C84.796 109.169 85.1555 109.061 85.523 109.062C85.7666 109.062 86.0079 109.11 86.2329 109.203C86.4579 109.297 86.6623 109.434 86.8344 109.606C87.0064 109.779 87.1427 109.983 87.2355 110.209C87.3283 110.434 87.3757 110.675 87.3751 110.919Z" fill="white"/>
<path d="M78.4335 94.7842L79.1195 95.9454L75.8024 97.3663L75.0479 96.5922L78.4335 94.7842Z" fill="white"/>
<path d="M100.075 113.795L99.4287 112.154H101.952L100.075 113.795Z" fill="white"/>
<path d="M126.882 112.154L127.078 110.326L130.537 111.238V113.908L126.882 112.154Z" fill="white"/>
<path d="M134.314 102.731H137.406L135.863 104.559L134.314 102.731Z" fill="white"/>
<path d="M139.401 83.9268L138.759 87.8073L139.469 88.4541L140.136 83.9268H139.401Z" fill="white"/>
<path d="M73.0635 72.5591L75.8024 74.5484L73.8425 75.9889L73.0635 72.5591Z" fill="white"/>
<path d="M85.2149 56.8117C85.3854 56.8117 85.5236 56.6735 85.5236 56.503C85.5236 56.3325 85.3854 56.1943 85.2149 56.1943C85.0445 56.1943 84.9062 56.3325 84.9062 56.503C84.9062 56.6735 85.0445 56.8117 85.2149 56.8117Z" fill="white"/>
<path d="M124.882 53.1319C125.12 53.1319 125.314 52.9388 125.314 52.7007C125.314 52.4626 125.12 52.2695 124.882 52.2695C124.644 52.2695 124.451 52.4626 124.451 52.7007C124.451 52.9388 124.644 53.1319 124.882 53.1319Z" fill="white"/>
<path d="M113.309 111.801C113.309 111.893 113.272 111.982 113.207 112.047C113.142 112.112 113.053 112.149 112.961 112.149C112.869 112.149 112.78 112.112 112.715 112.047C112.65 111.982 112.613 111.893 112.613 111.801C112.613 111.709 112.65 111.62 112.715 111.555C112.78 111.49 112.869 111.453 112.961 111.453C113.053 111.453 113.142 111.49 113.207 111.555C113.272 111.62 113.309 111.709 113.309 111.801Z" fill="white"/>
<path d="M117.391 44.6458L120.84 44.1265V45.8071L117.391 46.3264V44.6458Z" fill="white"/>
<path d="M140.136 46.3267H141.268L140.699 47.7133L140.136 46.3267Z" fill="white"/>
<path d="M75.0479 48.1685H76.7186L75.8808 49.1043L75.0479 48.1685Z" fill="white"/>
<path d="M138.386 113.795L138.225 110.581L140.699 111.453L138.386 113.795Z" fill="white"/>
<path d="M140.762 95.299L139.469 94.2651V95.299L140.762 96.078V95.299Z" fill="white"/>
<path d="M74.4309 84.9604L75.8812 86.1903L75.156 87.2878L73.2354 85.7493L74.4309 84.9604Z" fill="white"/>
<path d="M73.235 56.1943H75.0479L73.0635 56.8117L73.235 56.1943Z" fill="white"/>
</g>
<path d="M104.834 53.2596L108.112 50.1777L111.355 53.289L115.294 51.1185L117.666 54.9402L122.022 53.8231L123.364 58.1103H127.862L128.102 62.5984L132.458 63.7156L131.566 68.1253L135.511 70.2909L133.556 74.3381L136.834 77.4151L133.933 80.8498L136.344 84.647L132.679 87.2536L134.07 91.5262L129.876 93.1382L130.16 97.6263L125.692 98.1456L124.854 102.565L120.395 101.953L118.484 106.024L114.319 104.324L111.453 107.793L107.842 105.113L104.207 107.759L101.374 104.265L97.1951 105.921L95.3234 101.835L90.8647 102.399L90.066 97.9742L85.6024 97.4107L85.9307 92.9275L81.7513 91.2763L83.182 87.0136L79.5415 84.3726L81.9913 80.5999L79.1201 77.1358L82.4323 74.0931L80.5165 70.0215L84.4804 67.895L83.6327 63.4804L87.9984 62.4073L88.2776 57.9192L92.7755 57.9633L94.1621 53.6859L98.5082 54.8471L100.914 51.0499L104.834 53.2596Z" fill="#4ECA6E"/>
<path opacity="0.4" d="M134.422 81.8297L137.323 78.4L134.045 75.323L136.005 71.2758L132.061 69.1101L132.952 64.7004L128.596 63.5833L128.356 59.0952H123.858L122.516 54.808L118.16 55.9251L115.789 52.1033L111.869 54.2739L108.625 51.1626L105.347 54.2445L101.428 52.0347L99.0219 55.8369L94.6759 54.6708L93.2893 58.9482L88.7914 58.9041L88.5121 63.3922L84.1465 64.4652L84.9941 68.875L81.0303 71.0014L82.9461 75.0731L79.6094 78.1354L82.4806 81.5994L80.0307 85.3722L83.6712 88.0131L82.2405 92.2758L86.4199 93.9271L86.0917 98.4103L90.5553 98.9737L91.349 103.383L95.8126 102.82L97.6843 106.906L101.864 105.25L104.696 108.744L108.331 106.098L111.942 108.778L114.809 105.309L118.973 107.009L120.884 102.938L125.338 103.55L126.181 99.1403L130.649 98.6209L130.36 94.1328L134.559 92.5208L133.168 88.2434L136.833 85.6417L134.422 81.8297ZM133.521 84.9949L130.282 87.2978L131.512 91.0754L127.803 92.4963L128.057 96.4602L124.108 96.9208L123.368 100.84L119.449 100.302L117.758 103.898L114.084 102.399L111.55 105.456L108.361 103.089L105.151 105.427L102.653 102.34L98.9582 103.81L97.307 100.199L93.3628 100.689L92.6621 96.7689L88.7424 96.2789L89.0364 92.32L85.342 90.8501L86.6061 87.0871L83.3919 84.7548L85.5576 81.423L83.0196 78.3657L85.9594 75.6757L84.22 72.0598L87.7233 70.1832L86.9736 66.2634L90.8346 65.3178L91.0795 61.3539L95.0483 61.3931L96.2732 57.6155L100.11 58.6444L102.236 55.2881L105.7 57.248L108.591 54.5238L111.457 57.2725L114.936 55.3567L117.033 58.7326L120.879 57.7527L122.065 61.545H126.039L126.249 65.5138L130.096 66.4937L129.312 70.3841L132.791 72.2949L131.066 75.8717L133.962 78.591L131.399 81.6239L133.521 84.9949Z" fill="black"/>
<path opacity="0.4" d="M104.834 53.2596L108.112 50.1777L111.355 53.289L115.294 51.1185L117.666 54.9402L122.022 53.8231L123.364 58.1103H127.862L128.102 62.5984L132.458 63.7156L131.566 68.1253L135.511 70.2909L133.556 74.3381L136.834 77.4151L133.933 80.8498L136.344 84.647L132.679 87.2536L134.07 91.5262L129.876 93.1382L130.16 97.6263L125.692 98.1456L124.854 102.565L120.395 101.953L118.484 106.024L114.319 104.324L111.453 107.793L107.842 105.113L104.207 107.759L101.374 104.265L97.1951 105.921L95.3234 101.835L90.8647 102.399L90.066 97.9742L85.6024 97.4107L85.9307 92.9275L81.7513 91.2763L83.182 87.0136L79.5415 84.3726L81.9913 80.5999L79.1201 77.1358L82.4323 74.0931L80.5165 70.0215L84.4804 67.895L83.6327 63.4804L87.9984 62.4073L88.2776 57.9192L92.7755 57.9633L94.1621 53.6859L98.5082 54.8471L100.914 51.0499L104.834 53.2596Z" fill="black"/>
<path d="M133.933 80.8498L136.834 77.42L133.556 74.343L135.515 70.2958L131.571 68.1302L132.463 63.7204L128.107 62.6033L127.867 58.1152H123.369L122.027 53.828L117.671 54.9451L115.299 51.1234L111.38 53.2939L108.136 50.1826L104.858 53.2645L100.938 51.0548L98.5327 54.8569L94.1866 53.6908L92.8 57.9682L88.3021 57.9241L88.0228 62.4122L83.6572 63.4853L84.5049 67.895L80.541 70.0214L82.4568 74.0931L79.1201 77.1554L81.9913 80.6195L79.5415 84.3922L83.182 87.0331L81.7513 91.2959L85.9307 92.9471L85.6024 97.4303L90.066 97.9937L90.8598 102.403L95.3234 101.84L97.1951 105.926L101.374 104.27L104.207 107.764L107.842 105.118L111.453 107.798L114.319 104.329L118.484 106.029L120.395 101.958L124.849 102.57L125.692 98.1603L130.16 97.641L129.871 93.1529L134.07 91.5409L132.679 87.2634L136.344 84.6617L133.933 80.8498ZM133.031 84.0149L129.793 86.3178L131.022 90.0955L127.313 91.5164L127.568 95.4802L123.619 95.9408L122.879 99.8605L118.959 99.3216L117.269 102.918L113.594 101.419L111.061 104.476L107.871 102.109L104.662 104.447L102.163 101.36L98.469 102.83L96.8178 99.2187L92.8735 99.7086L92.1729 95.7889L88.2531 95.2989L88.5471 91.34L84.8527 89.8701L86.1169 86.1071L82.9027 83.7749L85.0683 80.4431L82.5303 77.3857L85.4701 74.6957L83.7307 71.0798L87.234 69.2032L86.4843 65.2834L90.3453 64.3378L90.5903 60.374L94.559 60.4132L95.7839 56.6355L99.6204 57.6644L101.747 54.3082L105.211 56.268L108.102 53.5438L110.968 56.2925L114.447 54.3767L116.544 57.7526L120.39 56.7727L121.576 60.5651H125.55L125.76 64.5338L129.606 65.5137L128.823 69.4041L132.301 71.315L130.577 74.8917L133.472 77.611L130.91 80.644L133.031 84.0149Z" fill="#4ECA6E"/>
<path opacity="0.6" d="M133.933 80.8498L136.834 77.42L133.556 74.343L135.515 70.2958L131.571 68.1302L132.463 63.7204L128.107 62.6033L127.867 58.1152H123.369L122.027 53.828L117.671 54.9451L115.299 51.1234L111.38 53.2939L108.136 50.1826L104.858 53.2645L100.938 51.0548L98.5327 54.8569L94.1866 53.6908L92.8 57.9682L88.3021 57.9241L88.0228 62.4122L83.6572 63.4853L84.5049 67.895L80.541 70.0214L82.4568 74.0931L79.1201 77.1554L81.9913 80.6195L79.5415 84.3922L83.182 87.0331L81.7513 91.2959L85.9307 92.9471L85.6024 97.4303L90.066 97.9937L90.8598 102.403L95.3234 101.84L97.1951 105.926L101.374 104.27L104.207 107.764L107.842 105.118L111.453 107.798L114.319 104.329L118.484 106.029L120.395 101.958L124.849 102.57L125.692 98.1603L130.16 97.641L129.871 93.1529L134.07 91.5409L132.679 87.2634L136.344 84.6617L133.933 80.8498ZM133.031 84.0149L129.793 86.3178L131.022 90.0955L127.313 91.5164L127.568 95.4802L123.619 95.9408L122.879 99.8605L118.959 99.3216L117.269 102.918L113.594 101.419L111.061 104.476L107.871 102.109L104.662 104.447L102.163 101.36L98.469 102.83L96.8178 99.2187L92.8735 99.7086L92.1729 95.7889L88.2531 95.2989L88.5471 91.34L84.8527 89.8701L86.1169 86.1071L82.9027 83.7749L85.0683 80.4431L82.5303 77.3857L85.4701 74.6957L83.7307 71.0798L87.234 69.2032L86.4843 65.2834L90.3453 64.3378L90.5903 60.374L94.559 60.4132L95.7839 56.6355L99.6204 57.6644L101.747 54.3082L105.211 56.268L108.102 53.5438L110.968 56.2925L114.447 54.3767L116.544 57.7526L120.39 56.7727L121.576 60.5651H125.55L125.76 64.5338L129.606 65.5137L128.823 69.4041L132.301 71.315L130.577 74.8917L133.472 77.611L130.91 80.644L133.031 84.0149Z" fill="white"/>
<path opacity="0.4" d="M93.5787 77.5523C93.5787 77.5523 96.0775 77.1211 97.3073 77.5523C98.5371 77.9835 103.741 86.8617 103.741 86.8617C103.741 86.8617 113.834 72.976 121.904 66.9053C121.904 66.9053 111.433 76.2833 105.362 92.026C105.362 92.026 103.319 92.9275 101.874 91.3155C101.457 90.8255 96.7683 82.8342 95.8619 82.5353C95.1514 82.2952 92.8584 82.4128 92.8584 82.4128L93.5787 77.5523Z" fill="black"/>
<path d="M93.0884 77.0621C93.0884 77.0621 95.5873 76.6309 96.8171 77.0621C98.0469 77.4932 103.25 86.3715 103.25 86.3715C103.25 86.3715 113.344 72.4857 121.413 66.415C121.413 66.415 110.943 75.793 104.872 91.5357C104.872 91.5357 102.829 92.4373 101.384 90.8253C100.967 90.3353 96.2781 82.3439 95.3717 82.045C94.6612 81.805 92.3682 81.9225 92.3682 81.9225L93.0884 77.0621Z" fill="white"/>
<path d="M96.8566 25.7823C96.8667 27.7908 96.3606 29.7682 95.3867 31.5247L95.1711 31.8922C94.4708 33.0541 93.5739 34.0853 92.5203 34.9398L92.4615 34.9888C91.4641 35.7927 90.342 36.4283 89.1396 36.8703C87.8401 37.3465 86.4666 37.5887 85.0826 37.5856C84.6422 37.5883 84.202 37.5638 83.7646 37.5121C83.03 37.434 82.3047 37.2847 81.5989 37.0663C79.8803 36.5379 78.3073 35.6189 77.003 34.3812C75.5768 33.0395 74.5064 31.3643 73.8883 29.5063C73.2701 27.6482 73.1235 25.6657 73.4617 23.7369C73.7998 21.8082 74.6121 19.9938 75.8255 18.4569C77.0389 16.92 78.6154 15.7088 80.413 14.9323C82.2106 14.1558 84.1731 13.8384 86.1238 14.0086C88.0746 14.1787 89.9525 14.8311 91.5885 15.9071C93.2246 16.9831 94.5675 18.4489 95.4965 20.1727C96.4254 21.8965 96.9113 23.8241 96.9105 25.7823H96.8566Z" fill="#4ECA6E"/>
<path d="M95.3669 31.525L95.1513 31.8925C92.45 31.8503 89.7544 32.1549 87.1305 32.799L86.2535 33.0145L85.6557 33.1713C84.9061 33.3722 84.1858 33.5829 83.5734 33.7838L83.2941 33.8769L83.0932 33.9406C82.3632 34.1856 81.7409 34.406 81.2656 34.5873C80.5552 34.8568 80.1485 35.0332 80.1485 35.0332C79.9162 34.7336 79.7034 34.4194 79.5115 34.0925L79.4821 34.0386C78.4189 32.2551 76.5423 28.159 77.4243 22.2793C78.4042 15.7382 83.8282 16.1547 85.7537 16.5173C85.9838 16.5554 86.2112 16.6077 86.4348 16.6741C86.4348 16.6741 92.5055 18.1048 92.7309 21.8874C92.7626 22.3937 92.8248 22.8976 92.9171 23.3965C93.4879 26.1741 94.3078 28.8946 95.3669 31.525Z" fill="#263238"/>
<path d="M89.1197 36.8705C87.8202 37.3467 86.4467 37.5889 85.0627 37.5858C84.6223 37.5885 84.1821 37.5639 83.7447 37.5123C83.0101 37.4342 82.2848 37.2849 81.5791 37.0665L81.2018 33.9846L81.0205 32.5146L89.1001 33.6612V34.352L89.1246 36.3805V36.8705H89.1197Z" fill="#4ECA6E"/>
<path d="M92.4419 34.9888C91.4445 35.7928 90.3223 36.4283 89.1199 36.8703C87.8205 37.3465 86.4469 37.5887 85.063 37.5857C84.6225 37.5883 84.1824 37.5638 83.745 37.5122C83.0103 37.4341 82.285 37.2847 81.5793 37.0663C79.8607 36.5379 78.2877 35.6189 76.9834 34.3813C77.3558 34.3225 77.7331 34.2784 78.1103 34.2294H78.2034C78.6493 34.1804 79.0952 34.1363 79.541 34.102C80.0702 34.0579 80.5945 34.0236 81.1236 34.004H81.2167L81.8635 33.9795H82.6327H83.5343C84.5142 33.9795 85.5072 34.0154 86.5133 34.0873L87.5275 34.1706L88.0616 34.2245L88.8357 34.3421L89.0072 34.3666H89.1248L90.0362 34.5234C90.1782 34.5479 90.3203 34.5821 90.4624 34.6017L90.7319 34.6556L91.021 34.7095L91.511 34.8075L91.8539 34.8761L92.4419 34.9888Z" fill="#263238"/>
<path d="M87.052 36.9783C83.6859 36.405 82.7256 34.9155 82.7256 34.9155C84.1661 33.671 83.9946 31.7356 83.7055 30.5058C83.6129 30.1221 83.4883 29.7468 83.3331 29.3838L87.3754 30.3147C87.2581 30.8769 87.1812 31.4467 87.1451 32.0198C87.1143 32.4438 87.1357 32.87 87.2088 33.2888C87.4342 34.5138 88.1299 34.5628 88.1299 34.5628C88.7718 35.9592 87.052 36.9783 87.052 36.9783Z" fill="#E4897B"/>
<path opacity="0.2" d="M87.1303 32.0491C87.0995 32.4731 87.1209 32.8993 87.194 33.3181C85.5869 33.034 84.411 31.6914 83.6907 30.5351C83.5981 30.1514 83.4735 29.7761 83.3184 29.4131L87.3606 30.344C87.2434 30.9062 87.1664 31.476 87.1303 32.0491Z" fill="black"/>
<path d="M86.5816 18.761C90.4083 18.9276 91.5548 21.0296 91.6626 24.9836C91.8047 29.9225 90.5602 33.3768 85.8222 32.1224C79.384 30.4125 80.2267 18.4866 86.5816 18.761Z" fill="#E4897B"/>
<path d="M89.1982 24.6602C89.4811 25.2456 89.8331 25.795 90.2468 26.2966C90.127 26.4493 89.968 26.5664 89.7867 26.6354C89.6054 26.7045 89.4088 26.7229 89.2178 26.6886L89.1982 24.6602Z" fill="#DE5753"/>
<path d="M85.2644 22.2791C85.2211 22.2793 85.1793 22.2636 85.1468 22.235C85.1297 22.219 85.1162 22.1996 85.1069 22.1781C85.0976 22.1566 85.0928 22.1335 85.0928 22.1101C85.0928 22.0866 85.0976 22.0635 85.1069 22.042C85.1162 22.0205 85.1297 22.0011 85.1468 21.9851C85.389 21.7531 85.6824 21.5812 86.0033 21.4833C86.3241 21.3854 86.6635 21.3643 86.994 21.4217C87.0168 21.4258 87.0387 21.4344 87.0582 21.447C87.0777 21.4596 87.0946 21.4759 87.1078 21.495C87.121 21.5141 87.1303 21.5357 87.1351 21.5584C87.14 21.5811 87.1403 21.6046 87.1361 21.6274C87.1319 21.6503 87.1233 21.6721 87.1107 21.6917C87.0982 21.7112 87.0818 21.7281 87.0627 21.7413C87.0436 21.7545 87.022 21.7638 86.9993 21.7686C86.9766 21.7735 86.9531 21.7738 86.9303 21.7695C86.6595 21.7266 86.3826 21.7448 86.1198 21.8228C85.8569 21.9008 85.6149 22.0366 85.4114 22.2203C85.3932 22.2409 85.3704 22.2569 85.3449 22.2671C85.3193 22.2773 85.2918 22.2814 85.2644 22.2791Z" fill="#263238"/>
<path d="M91.2466 22.1225C91.2096 22.1215 91.1738 22.1096 91.1437 22.0882C90.9591 21.9318 90.7419 21.8185 90.5079 21.7566C90.274 21.6947 90.0292 21.6858 89.7914 21.7305C89.7692 21.7382 89.7457 21.7413 89.7223 21.7398C89.6988 21.7382 89.676 21.732 89.655 21.7215C89.634 21.711 89.6153 21.6965 89.6 21.6787C89.5847 21.6609 89.5732 21.6402 89.566 21.6178C89.5519 21.573 89.5557 21.5244 89.5768 21.4824C89.5978 21.4403 89.6343 21.4081 89.6787 21.3925C89.9697 21.3288 90.2715 21.3323 90.561 21.4028C90.8506 21.4732 91.1202 21.6088 91.3495 21.7991C91.3873 21.8275 91.4125 21.8694 91.4198 21.9161C91.4272 21.9628 91.416 22.0105 91.3887 22.049C91.3719 22.071 91.3505 22.0891 91.3259 22.1018C91.3013 22.1145 91.2742 22.1216 91.2466 22.1225Z" fill="#263238"/>
<path d="M82.123 25.0324C82.123 25.0324 84.0486 21.9652 83.882 19.5252C83.882 19.5252 91.599 16.752 91.6431 24.4641C91.6431 24.4641 92.677 17.6633 86.1065 17.2272C79.536 16.7912 79.1489 26.419 82.4219 29.4324C82.4219 29.4324 80.9324 26.9482 82.123 25.0324Z" fill="#263238"/>
<path d="M82.7156 25.8658C82.6965 25.4222 82.5031 25.004 82.1774 24.7022C81.8517 24.4004 81.42 24.2392 80.9762 24.2538C79.7807 24.3322 79.1144 26.7429 82.0395 27.4533C82.4559 27.5562 82.7107 27.179 82.7156 25.8658Z" fill="#E4897B"/>
<path d="M89.2917 27.8157C89.0312 28.2037 88.7987 28.6098 88.5959 29.0308L88.3558 28.9622C87.2877 28.629 86.8859 28.1243 86.7928 27.6638C86.7456 27.4365 86.754 27.2011 86.8173 26.9778C86.8485 26.8505 86.8981 26.7284 86.9643 26.6152C87.5328 27.112 88.2011 27.4812 88.9242 27.6981C89.1496 27.7765 89.2917 27.8157 89.2917 27.8157Z" fill="#263238"/>
<path d="M88.9291 27.6981L88.7136 28.0508C87.7336 27.7373 87.0379 27.3845 86.8174 26.9778C86.8486 26.8505 86.8981 26.7284 86.9644 26.6152C87.5343 27.1126 88.2043 27.4818 88.9291 27.6981Z" fill="white"/>
<path d="M88.356 28.9625C87.2878 28.6293 86.8861 28.1246 86.793 27.6641C87.1984 27.7964 87.5768 28.0006 87.9101 28.2667C88.1303 28.4441 88.2868 28.6883 88.356 28.9625Z" fill="#DE5753"/>
<path d="M86.4936 19.0451C86.4936 19.0451 84.6807 25.2775 80.7218 25.0276C76.7628 24.7777 83.2206 17.0656 83.2206 17.0656C83.2206 17.0656 89.7911 14.9049 92.8387 18.4767C95.8863 22.0486 91.6432 24.4642 91.6432 24.4642C91.6432 24.4642 92.0939 19.5988 86.4936 19.0451Z" fill="#263238"/>
<path d="M83.5539 24.4151C83.5294 24.4148 83.5056 24.4072 83.4855 24.3932C83.4654 24.3792 83.45 24.3595 83.4412 24.3367C83.4296 24.3074 83.4298 24.2748 83.4416 24.2456C83.4535 24.2164 83.4761 24.1928 83.5049 24.1799C86.5917 22.857 86.3516 18.6482 86.3516 18.6041C86.3503 18.5724 86.3612 18.5414 86.3823 18.5176C86.4033 18.4939 86.4327 18.4792 86.4643 18.4767C86.4965 18.4752 86.5281 18.4861 86.5527 18.507C86.5772 18.5279 86.5929 18.5573 86.5966 18.5894C86.5966 18.6335 86.8465 22.9991 83.6029 24.4053L83.5539 24.4151Z" fill="#263238"/>
<path d="M86.9444 24.4445C86.9787 24.7385 86.8464 24.9982 86.6504 25.0227C86.4544 25.0472 86.2633 24.8218 86.229 24.5327C86.1947 24.2436 86.327 23.979 86.523 23.9545C86.719 23.93 86.9101 24.1456 86.9444 24.4445Z" fill="#263238"/>
<path d="M86.4395 23.9743L87.0568 23.646C87.0568 23.646 86.7971 24.2389 86.4395 23.9743Z" fill="#263238"/>
<path d="M90.6143 23.945C90.6486 24.2389 90.5163 24.4986 90.3203 24.5231C90.1244 24.5476 89.9333 24.3271 89.899 24.0332C89.8647 23.7392 89.997 23.4795 90.193 23.455C90.3889 23.4305 90.5898 23.651 90.6143 23.945Z" fill="#263238"/>
<path d="M90.0996 23.4748L90.7121 23.1465C90.7121 23.1465 90.472 23.7491 90.0996 23.4748Z" fill="#263238"/>
<path d="M92.5012 34.94L92.4424 34.989C91.4449 35.7929 90.3228 36.4284 89.1204 36.8705V36.5226V36.3707L88.4785 35.0723L88.8068 34.2981L89.0861 33.6514L89.3703 34.2687L92.5012 34.94Z" fill="#4ECA6E"/>
<path opacity="0.6" d="M92.5012 34.94L92.4424 34.989C91.4449 35.7929 90.3228 36.4284 89.1204 36.8705V36.5226V36.3707L88.4785 35.0723L88.8068 34.2981L89.0861 33.6514L89.3703 34.2687L92.5012 34.94Z" fill="white"/>
<path d="M85.1365 34.9743L83.7989 36.6549L83.7303 37.5172C82.9957 37.4391 82.2704 37.2898 81.5647 37.0713C79.846 36.5429 78.273 35.624 76.9688 34.3863L78.081 34.2295H78.1741L80.5308 33.8963L81.0208 32.5195L83.4216 33.9502L85.1512 34.9841L85.1365 34.9743Z" fill="#4ECA6E"/>
<path opacity="0.6" d="M85.1316 34.9743L83.7989 36.6549L83.7303 37.5172C82.9957 37.4391 82.2704 37.2898 81.5647 37.0714C79.846 36.5429 78.273 35.624 76.9688 34.3863L78.1741 34.2197L80.5308 33.8915L81.0208 32.5146L83.4216 33.9454L85.1316 34.9743Z" fill="white"/>
<path d="M97.6647 35.7679C97.6647 36.4026 97.4765 37.0231 97.1238 37.5509C96.7712 38.0786 96.27 38.49 95.6835 38.7329C95.0971 38.9758 94.4518 39.0394 93.8293 38.9155C93.2067 38.7917 92.6349 38.486 92.1861 38.0372C91.7373 37.5884 91.4316 37.0165 91.3078 36.394C91.1839 35.7715 91.2475 35.1262 91.4904 34.5397C91.7333 33.9533 92.1446 33.4521 92.6724 33.0995C93.2002 32.7468 93.8207 32.5586 94.4554 32.5586C95.3065 32.5586 96.1228 32.8967 96.7247 33.4986C97.3266 34.1004 97.6647 34.9167 97.6647 35.7679Z" fill="white"/>
<path d="M97.1946 35.7677C97.1946 36.3094 97.034 36.839 96.7331 37.2894C96.4321 37.7398 96.0043 38.0909 95.5039 38.2982C95.0034 38.5055 94.4527 38.5597 93.9214 38.454C93.3901 38.3483 92.9021 38.0875 92.519 37.7044C92.136 37.3214 91.8751 36.8334 91.7694 36.3021C91.6637 35.7708 91.718 35.2201 91.9253 34.7196C92.1326 34.2191 92.4836 33.7914 92.9341 33.4904C93.3845 33.1894 93.914 33.0288 94.4557 33.0288C95.1821 33.0288 95.8788 33.3174 96.3924 33.831C96.9061 34.3447 97.1946 35.0413 97.1946 35.7677Z" fill="#263238"/>
<path d="M94.3478 37.1936L92.8877 35.905L93.2111 35.5376L94.2694 36.4685L95.6609 34.5576L96.0578 34.8467L94.3478 37.1936Z" fill="white"/>
<path d="M21.0886 137.147L35.2242 135.761V118.367H40.8196V135.751L54.9944 137.147C55.6737 137.213 56.304 137.53 56.7624 138.035C57.2208 138.541 57.4744 139.199 57.4737 139.881V142.003H18.6094V139.871C18.6111 139.191 18.8657 138.535 19.3239 138.031C19.7821 137.528 20.4111 137.213 21.0886 137.147Z" fill="#263238"/>
<path opacity="0.1" d="M21.0886 137.147L35.2242 135.761V118.367H40.8196V135.751L54.9944 137.147C55.6737 137.213 56.304 137.53 56.7624 138.035C57.2208 138.541 57.4744 139.199 57.4737 139.881V142.003H18.6094V139.871C18.6111 139.191 18.8657 138.535 19.3239 138.031C19.7821 137.528 20.4111 137.213 21.0886 137.147Z" fill="white"/>
<path d="M56.5581 148.238C58.5534 147.914 59.9083 146.034 59.5845 144.039C59.2606 142.043 57.3805 140.688 55.3852 141.012C53.39 141.336 52.035 143.216 52.3589 145.211C52.6828 147.207 54.5628 148.562 56.5581 148.238Z" fill="#263238"/>
<path d="M23.7153 145.226C24.0392 143.23 22.6843 141.35 20.689 141.026C18.6937 140.703 16.8136 142.057 16.4898 144.053C16.1659 146.048 17.5208 147.928 19.5161 148.252C21.5114 148.576 23.3914 147.221 23.7153 145.226Z" fill="#263238"/>
<path d="M39.7411 122.634H36.2672C35.7305 122.634 35.2158 122.421 34.8363 122.042C34.4568 121.662 34.2436 121.147 34.2436 120.611V104.966H41.7646V120.611C41.7646 121.147 41.5515 121.662 41.172 122.042C40.7925 122.421 40.2778 122.634 39.7411 122.634Z" fill="#263238"/>
<path opacity="0.2" d="M39.7411 122.634H36.2672C35.7305 122.634 35.2158 122.421 34.8363 122.042C34.4568 121.662 34.2436 121.147 34.2436 120.611V104.966H41.7646V120.611C41.7646 121.147 41.5515 121.662 41.172 122.042C40.7925 122.421 40.2778 122.634 39.7411 122.634Z" fill="white"/>
<path d="M18.4666 74.2842C18.4666 74.2842 22.6559 100.453 30.9265 104.961H22.5187C22.5187 104.961 14.2137 96.0437 11.7051 74.2842H18.4666Z" fill="#263238"/>
<path opacity="0.1" d="M18.4666 74.2842C18.4666 74.2842 22.6559 100.453 30.9265 104.961H22.5187C22.5187 104.961 14.2137 96.0437 11.7051 74.2842H18.4666Z" fill="white"/>
<path d="M22.1071 101.262H54.8958C55.5455 101.262 56.1686 101.52 56.6281 101.979C57.0875 102.439 57.3456 103.062 57.3456 103.712V106.989H19.6572V103.712C19.6572 103.062 19.9153 102.439 20.3748 101.979C20.8342 101.52 21.4573 101.262 22.1071 101.262Z" fill="#4ECA6E"/>
<path d="M57.9292 104.123H19.0698C18.5259 104.123 18.085 104.564 18.085 105.108V106C18.085 106.544 18.5259 106.984 19.0698 106.984H57.9292C58.4731 106.984 58.914 106.544 58.914 106V105.108C58.914 104.564 58.4731 104.123 57.9292 104.123Z" fill="#263238"/>
<path opacity="0.6" d="M57.9292 104.123H19.0698C18.5259 104.123 18.085 104.564 18.085 105.108V106C18.085 106.544 18.5259 106.984 19.0698 106.984H57.9292C58.4731 106.984 58.914 106.544 58.914 106V105.108C58.914 104.564 58.4731 104.123 57.9292 104.123Z" fill="white"/>
<path d="M10.6863 79.6052H24.1604C28.0802 79.6052 30.6721 76.44 29.8832 72.535L28.8543 67.3217C28.0704 63.4019 24.2339 60.2563 20.2897 60.2563H6.80573C2.88599 60.2563 0.294052 63.4215 1.0829 67.3217L2.12653 72.535C2.88599 76.44 6.74204 79.6052 10.6863 79.6052Z" fill="#4ECA6E"/>
<path d="M23.3711 53.8032H31.9553L32.7442 58.9234L25.1105 60.2561L23.3711 53.8032Z" fill="#4ECA6E"/>
<path d="M80.3748 124.932L77.2929 126.138L75.0782 121.958L73.0645 118.161L76.4795 116.113L78.5423 120.777L80.3748 124.932Z" fill="#E4897B"/>
<path opacity="0.2" d="M78.5423 120.777L75.0782 121.958L73.0645 118.161L76.4795 116.113L78.5423 120.777Z" fill="black"/>
<path d="M77.9055 118.499L73.7114 120.763C73.7114 120.763 57.8707 92.9127 55.4356 93.143C53.0004 93.3733 29.8935 108.087 22.8478 102.634C15.802 97.1803 22.6567 80.8252 22.6567 80.8252C22.6567 80.8252 36.4248 75.5923 38.0074 78.7918C38.7016 80.0876 39.32 81.4226 39.8595 82.79C40.1682 83.7699 40.4034 84.6372 40.4034 84.6372C40.8492 84.4559 55.2445 78.5517 61.6729 81.6973C68.2091 84.9458 77.9055 118.499 77.9055 118.499Z" fill="#4ECA6E"/>
<path opacity="0.3" d="M77.9055 118.499L73.7114 120.763C73.7114 120.763 57.8707 92.9127 55.4356 93.143C53.0004 93.3733 29.8935 108.087 22.8478 102.634C15.802 97.1803 22.6567 80.8252 22.6567 80.8252C22.6567 80.8252 36.4248 75.5923 38.0074 78.7918C38.7016 80.0876 39.32 81.4226 39.8595 82.79C40.1682 83.7699 40.4034 84.6372 40.4034 84.6372C40.8492 84.4559 55.2445 78.5517 61.6729 81.6973C68.2091 84.9458 77.9055 118.499 77.9055 118.499Z" fill="white"/>
<path d="M55.1315 141.209L51.8438 140.832L51.8291 136.196L51.8242 131.939L55.7979 131.752L55.4451 136.76L55.1315 141.209Z" fill="#E4897B"/>
<path opacity="0.2" d="M55.4353 136.863L51.8193 136.285V131.988L55.793 131.777L55.4353 136.863Z" fill="black"/>
<path d="M71.6631 119.366L77.7975 116.294L78.4345 118.891L73.7896 121.287L71.6631 119.366Z" fill="#263238"/>
<path d="M33.7539 102.693C33.7539 102.693 34.7632 102.58 50.256 99.7088C50.256 99.7088 50.6088 119.528 51.3438 134.296L56.1161 134.452C56.1161 134.452 62.9756 101.664 62.1574 96.7249C61.3391 91.786 55.4595 91.105 55.4595 91.105C55.4595 91.105 45.2143 99.0425 33.7539 102.693Z" fill="#4ECA6E"/>
<path opacity="0.4" d="M33.7539 102.693C33.7539 102.693 34.7632 102.58 50.256 99.7088C50.256 99.7088 50.6088 119.528 51.3438 134.296L56.1161 134.452C56.1161 134.452 62.9756 101.664 62.1574 96.7249C61.3391 91.786 55.4595 91.105 55.4595 91.105C55.4595 91.105 45.2143 99.0425 33.7539 102.693Z" fill="white"/>
<path opacity="0.3" d="M33.7539 102.693C33.7539 102.693 34.7632 102.58 50.256 99.7088C50.256 99.7088 50.6088 119.528 51.3438 134.296L56.1161 134.452C56.1161 134.452 62.9756 101.664 62.1574 96.7249C61.3391 91.786 55.4595 91.105 55.4595 91.105C55.4595 91.105 45.2143 99.0425 33.7539 102.693Z" fill="black"/>
<path d="M50.4473 132.977L56.954 132.825L56.0672 135.505L50.7853 135.554L50.4473 132.977Z" fill="#263238"/>
<path opacity="0.3" d="M40.4031 84.6519L31.9561 87.6603C31.9561 87.6603 36.4001 84.3432 39.8593 82.8047C40.1679 83.8042 40.4031 84.6519 40.4031 84.6519Z" fill="black"/>
<path d="M22.1127 79.6638L21.9902 82.1725L37.8211 78.8162L37.4536 76.0479L22.1127 79.6638Z" fill="#263238"/>
<path opacity="0.2" d="M22.1127 79.6638L21.9902 82.1725L37.8211 78.8162L37.4536 76.0479L22.1127 79.6638Z" fill="black"/>
<path d="M26.9229 78.1293L26.1328 78.2759L26.8773 82.2888L27.6674 82.1423L26.9229 78.1293Z" fill="#4ECA6E"/>
<path d="M33.8308 77.1099L30.375 77.8887L30.9653 80.508L34.4211 79.7292L33.8308 77.1099Z" fill="white"/>
<path d="M36.5381 75.7613L35.748 75.9077L36.4918 79.9208L37.2819 79.7744L36.5381 75.7613Z" fill="#4ECA6E"/>
<path opacity="0.3" d="M26.9229 78.1293L26.1328 78.2759L26.8773 82.2888L27.6674 82.1423L26.9229 78.1293Z" fill="white"/>
<path opacity="0.3" d="M36.5381 75.7613L35.748 75.9077L36.4918 79.9208L37.2819 79.7744L36.5381 75.7613Z" fill="white"/>
<path d="M86.4996 130.395C85.9845 130.237 85.4446 130.176 84.9072 130.214C84.9072 130.214 82.9228 129.386 80.4975 125.427L78.4445 125.696C78.0988 125.749 77.7775 125.906 77.5243 126.147C77.271 126.388 77.0979 126.701 77.0285 127.044C77.0113 127.139 77.0113 127.237 77.0285 127.333C77.1147 127.83 77.2342 128.321 77.3862 128.803C77.9126 130.393 78.5344 131.951 79.248 133.467L79.5861 133.33L78.5327 130.356C78.1799 129.347 79.4097 130.199 80.0614 131.179C80.713 132.159 81.6342 133.105 83.8292 132.277C86.382 131.282 87.3913 130.753 86.4996 130.395Z" fill="#4ECA6E"/>
<path d="M79.9973 124.378C79.9973 124.378 83.2948 129.381 84.897 130.214C84.897 130.214 83.0841 131.684 80.6636 129.322C77.5377 126.299 77.0183 127.333 77.0183 127.333C76.9904 126.74 77.0183 126.147 77.1016 125.559C77.3613 124.413 79.9973 124.378 79.9973 124.378Z" fill="#E4897B"/>
<path d="M60.0502 147.04C59.586 146.767 59.0765 146.579 58.546 146.486C58.546 146.486 56.8115 145.207 55.4151 140.798L53.3572 140.572C53.0073 140.54 52.6559 140.617 52.3515 140.792C52.047 140.968 51.8044 141.233 51.657 141.552C51.6131 141.64 51.5833 141.734 51.5688 141.831C51.5369 142.331 51.5369 142.831 51.5688 143.331C51.7045 144.999 51.9401 146.658 52.2744 148.299L52.6321 148.245L52.3136 145.109C52.2107 144.041 53.2053 145.163 53.6071 146.271C54.0089 147.378 54.6752 148.515 57.0026 148.23C59.7219 147.873 60.8292 147.598 60.0502 147.04Z" fill="#4ECA6E"/>
<path d="M55.156 139.651C55.156 139.651 57.1746 145.295 58.5466 146.486C58.5466 146.486 56.4397 147.466 54.6268 144.619C52.3044 140.935 51.5498 141.821 51.5498 141.821C51.6603 141.239 51.8243 140.668 52.0398 140.116C52.5885 139.058 55.156 139.651 55.156 139.651Z" fill="#E4897B"/>
<path d="M30.9468 36.4879C30.9468 36.4879 23.2102 32.7299 20.6574 40.8241C18.1047 48.9184 21.3777 54.5041 21.3777 54.5041C21.3777 54.5041 30.3294 52.211 37.8651 53.8132C37.8651 53.8132 36.2384 46.9144 36.6304 42.9555C37.0224 38.9965 30.9468 36.4879 30.9468 36.4879Z" fill="#263238"/>
<path d="M36.9824 54.8076C38.6826 54.8811 45.8019 64.4502 45.8019 64.4502L48.4477 61.0204C48.4477 61.0204 52.5242 68.9432 50.5056 72.716C48.4869 76.4887 37.8546 66.1798 37.8546 66.1798L36.9824 54.8076Z" fill="#4ECA6E"/>
<path opacity="0.6" d="M36.9775 54.8076L37.6733 62.456L37.8497 66.1847C37.8497 66.1847 39.5989 67.88 41.8086 69.6439C45.0571 72.2358 49.3002 74.9698 50.5007 72.7258C52.5193 68.9579 48.4379 61.0302 48.4379 61.0302L45.797 64.46V64.4306C45.3854 63.8426 38.6238 54.8811 36.9775 54.8076Z" fill="white"/>
<path opacity="0.2" d="M37.6738 62.456L37.8502 66.1847C37.8502 66.1847 39.5994 67.88 41.8092 69.6438C42.0198 65.1655 37.8502 58.644 37.8502 58.644L37.6738 62.456Z" fill="black"/>
<path opacity="0.2" d="M45.8069 64.4503L45.4247 65.1804L46.532 69.4921C46.532 69.4921 43.4746 66.7091 45.4247 63.9849L45.8069 64.4503Z" fill="black"/>
<path d="M37.8743 63.3431C37.8743 63.4607 37.8743 63.5832 37.8743 63.7056C37.8743 64.2348 37.8743 64.7934 37.84 65.3862C37.84 65.4352 37.84 65.4842 37.84 65.5381C37.84 65.8566 37.84 66.1849 37.84 66.5181C37.84 66.5769 37.84 66.6308 37.84 66.6896C37.84 67.1795 37.8057 67.6695 37.7861 68.1595C37.7861 68.2281 37.7861 68.2967 37.7861 68.3652C37.7861 69.0316 37.7323 69.7323 37.698 70.4721C37.6196 72.1331 37.5265 73.9754 37.4089 76.0186L37.1884 76.0725L22.2199 79.6198H22.1611C22.1611 79.6198 22.7637 71.6137 21.7299 67.0815C21.7224 67.0418 21.7126 67.0025 21.7005 66.9639C21.7005 66.8953 21.6711 66.8267 21.6515 66.7582C21.6319 66.6896 21.5829 66.5034 21.5535 66.3711C21.5241 66.2388 21.4849 66.1065 21.4457 65.9693C21.3134 65.4793 21.1713 64.9894 21.0194 64.4504C20.9214 64.0976 20.8136 63.735 20.701 63.3627L20.6422 63.1765C20.5099 62.7355 20.3678 62.2798 20.2208 61.8095C20.1767 61.6723 20.1375 61.54 20.0934 61.3979C19.8778 60.7266 19.6475 60.0162 19.3976 59.2714C19.1233 58.432 18.8227 57.5418 18.4961 56.6011C20.2127 56.0538 21.9621 55.6152 23.7339 55.288L24.4933 55.1508L25.2969 55.0185C26.6394 54.8029 27.9966 54.651 29.3538 54.553C29.8993 54.5138 30.4432 54.4844 30.9854 54.4648C31.3137 54.4648 31.6517 54.4648 31.9653 54.4648H32.1025L33.0825 54.4942H33.5381H33.8272H34.1408L34.6308 54.5236H35.0031L35.6744 54.5677L35.939 54.5922H36.1742H36.3897H36.5661L36.9924 54.6314C36.9924 54.6314 36.9924 54.6314 37.0316 54.6314L37.0659 54.6657C37.0987 54.7047 37.1266 54.7475 37.1492 54.7931C37.2997 55.1122 37.4069 55.45 37.4677 55.7976C37.4677 55.8956 37.5069 56.0033 37.5314 56.1209C37.5559 56.2385 37.5902 56.4884 37.6245 56.704C37.6588 56.9196 37.6686 57.0176 37.6882 57.194C37.7078 57.3704 37.7225 57.5124 37.7372 57.6839C37.8821 59.5666 37.9279 61.4556 37.8743 63.3431Z" fill="#263238"/>
<path d="M29.7464 57.7085C26.1795 57.2529 25.1113 55.7242 25.1113 55.7242C26.5812 54.3523 26.302 52.3287 25.9296 51.0646C25.8175 50.6635 25.6699 50.2733 25.4886 49.8984L29.7807 50.702C29.6809 51.2981 29.6252 51.9008 29.6141 52.5051C29.598 52.9511 29.6392 53.3973 29.7366 53.8329C30.0257 55.1166 30.7558 55.1362 30.7558 55.1362C31.5103 56.5424 29.7464 57.7085 29.7464 57.7085Z" fill="#E4897B"/>
<path opacity="0.2" d="M29.6138 52.5051C29.5977 52.9511 29.6389 53.3973 29.7363 53.8329C28.0312 53.6124 26.7426 52.2454 25.9293 51.0646C25.8172 50.6635 25.6696 50.2733 25.4883 49.8984L29.7804 50.702C29.6806 51.2981 29.6249 51.9008 29.6138 52.5051Z" fill="black"/>
<path d="M30.7556 38.6632C34.7047 39.4668 35.5426 41.8431 35.0036 45.9687C34.3275 51.128 32.4656 54.5088 27.7472 52.4166C21.3482 49.5748 24.1998 37.3256 30.7556 38.6632Z" fill="#E4897B"/>
<path d="M32.4952 45.229C32.6919 45.8835 32.9666 46.5119 33.3135 47.1007C33.164 47.239 32.9794 47.3337 32.7798 47.3743C32.5802 47.4149 32.3733 47.3999 32.1816 47.331L32.4952 45.229Z" fill="#DE5753"/>
<path d="M28.8543 42.1031C28.8282 42.103 28.8024 42.0972 28.7787 42.0862C28.7551 42.0752 28.734 42.0592 28.7171 42.0394C28.7001 42.0233 28.6865 42.004 28.6772 41.9825C28.6679 41.961 28.6631 41.9378 28.6631 41.9144C28.6631 41.891 28.6679 41.8679 28.6772 41.8464C28.6865 41.8249 28.7001 41.8055 28.7171 41.7895C29.0058 41.5889 29.3376 41.4591 29.6858 41.4106C30.0339 41.3621 30.3886 41.3962 30.7211 41.5102C30.743 41.5179 30.7631 41.5299 30.7804 41.5454C30.7976 41.5609 30.8116 41.5796 30.8217 41.6006C30.8317 41.6215 30.8375 41.6442 30.8387 41.6674C30.8399 41.6905 30.8366 41.7137 30.8289 41.7356C30.8212 41.7575 30.8092 41.7776 30.7937 41.7949C30.7782 41.8121 30.7594 41.8262 30.7385 41.8362C30.7176 41.8462 30.6949 41.852 30.6717 41.8532C30.6485 41.8544 30.6254 41.8511 30.6035 41.8434C30.3275 41.7551 30.0355 41.7291 29.7482 41.7672C29.461 41.8053 29.1858 41.9066 28.9425 42.0639C28.9168 42.0841 28.8865 42.0976 28.8543 42.1031Z" fill="#263238"/>
<path d="M35.072 42.9211C35.0257 42.92 34.9817 42.9006 34.9496 42.8673C34.7811 42.674 34.5722 42.5203 34.3376 42.4169C34.1031 42.3136 33.8486 42.2633 33.5923 42.2695C33.5694 42.2737 33.5459 42.2731 33.5232 42.2679C33.5005 42.2627 33.4791 42.2529 33.4603 42.2392C33.4415 42.2254 33.4257 42.208 33.4139 42.1879C33.402 42.1679 33.3944 42.1456 33.3915 42.1225C33.3873 42.0996 33.3878 42.0761 33.393 42.0534C33.3982 42.0307 33.408 42.0092 33.4218 41.9905C33.4355 41.9717 33.453 41.9559 33.473 41.944C33.4931 41.9322 33.5153 41.9246 33.5384 41.9216C33.8501 41.903 34.1618 41.956 34.4497 42.0766C34.7377 42.1972 34.9941 42.3822 35.1994 42.6174C35.2159 42.6337 35.2289 42.6532 35.2378 42.6747C35.2467 42.6961 35.2513 42.7191 35.2513 42.7423C35.2513 42.7655 35.2467 42.7885 35.2378 42.81C35.2289 42.8314 35.2159 42.8509 35.1994 42.8673C35.1655 42.9009 35.1199 42.9202 35.072 42.9211Z" fill="#263238"/>
<path d="M25.0861 44.4352C25.0861 44.4352 27.5948 41.5689 27.8251 39.0064C27.8251 39.0064 36.2966 37.4091 35.0668 45.4299C35.0668 45.4299 37.2667 38.5311 30.515 36.9926C23.7632 35.4541 21.7641 45.3858 24.6648 49.0556C24.6648 49.0556 23.528 46.2334 25.0861 44.4352Z" fill="#263238"/>
<path d="M25.5618 45.4006C25.5892 45.1705 25.5709 44.9374 25.5082 44.7144C25.4454 44.4914 25.3393 44.283 25.196 44.101C25.0527 43.919 24.8749 43.767 24.6729 43.6537C24.4708 43.5404 24.2484 43.468 24.0184 43.4407C22.769 43.3231 21.6714 45.7142 24.5917 46.9391C25.013 47.1155 25.3462 46.7382 25.5618 45.4006Z" fill="#E4897B"/>
<path d="M32.0684 48.5168C31.7327 48.8781 31.4232 49.2629 31.1424 49.6683L30.9072 49.5507C29.8489 49.0313 29.5304 48.4434 29.4961 47.9485C29.4875 47.7038 29.5362 47.4606 29.6382 47.238C29.692 47.1114 29.7629 46.9927 29.8489 46.8853C30.3562 47.5038 30.9914 48.0052 31.7107 48.3552C31.9312 48.4532 32.0684 48.5168 32.0684 48.5168Z" fill="#263238"/>
<path d="M31.7112 48.3356L31.432 48.6687C30.452 48.1788 29.8004 47.6888 29.6387 47.238C29.6925 47.1114 29.7634 46.9927 29.8494 46.8853C30.3588 47.4967 30.9938 47.9913 31.7112 48.3356Z" fill="white"/>
<path d="M30.9072 49.5504C29.8489 49.0311 29.5304 48.4431 29.4961 47.9482C29.8975 48.1496 30.258 48.4237 30.5593 48.7567C30.7565 48.9777 30.8784 49.2557 30.9072 49.5504Z" fill="#DE5753"/>
<path d="M30.613 38.9378C30.613 38.9378 27.6732 45.1114 23.6261 44.1951C19.579 43.2789 27.5458 36.3556 27.5458 36.3556C27.5458 36.3556 34.7337 35.1846 37.3011 39.4277C39.8686 43.6709 35.0669 45.4544 35.0669 45.4544C35.0669 45.4544 36.3408 40.4469 30.613 38.9378Z" fill="#263238"/>
<path d="M26.6933 44.0283C26.6664 44.0272 26.6405 44.0176 26.6194 44.0009C26.5983 43.9842 26.583 43.9612 26.5757 43.9352C26.5714 43.9198 26.5702 43.9036 26.5723 43.8876C26.5744 43.8717 26.5798 43.8564 26.588 43.8426C26.5963 43.8289 26.6073 43.8169 26.6204 43.8076C26.6334 43.7982 26.6482 43.7916 26.6639 43.7882C30.0937 42.921 30.5445 38.5064 30.5494 38.4623C30.5531 38.4306 30.569 38.4017 30.5937 38.3815C30.6184 38.3614 30.6499 38.3517 30.6817 38.3545C30.6979 38.3549 30.7138 38.3589 30.7283 38.366C30.7428 38.3732 30.7556 38.3834 30.7659 38.3959C30.7761 38.4085 30.7835 38.4231 30.7876 38.4388C30.7917 38.4544 30.7923 38.4708 30.7895 38.4868C30.7895 38.5309 30.2995 43.117 26.7227 44.0234L26.6933 44.0283Z" fill="#263238"/>
<path d="M30.1871 44.6263C30.1871 44.9399 29.996 45.1849 29.7902 45.18C29.5844 45.1751 29.4178 44.9105 29.4325 44.5969C29.4472 44.2833 29.6236 44.0334 29.8343 44.0432C30.045 44.053 30.2018 44.3274 30.1871 44.6263Z" fill="#263238"/>
<path d="M29.7461 44.0531L30.437 43.813C30.437 43.813 30.0744 44.3765 29.7461 44.0531Z" fill="#263238"/>
<path d="M34.087 44.7147C34.087 45.0283 33.891 45.2781 33.6853 45.2683C33.4795 45.2585 33.3178 44.9989 33.3276 44.6853C33.3374 44.3717 33.5187 44.1267 33.7293 44.1365C33.94 44.1463 34.0968 44.4011 34.087 44.7147Z" fill="#263238"/>
<path d="M33.6416 44.1458L34.3325 43.9058C34.3325 43.9058 33.9699 44.4643 33.6416 44.1458Z" fill="#263238"/>
<path d="M39.5746 61.1233C39.5675 61.1757 39.5718 61.229 39.5874 61.2795C39.603 61.3301 39.6295 61.3766 39.665 61.4158C39.7005 61.455 39.7441 61.486 39.7928 61.5065C39.8415 61.5271 39.8942 61.5368 39.947 61.5348H44.0432C44.1564 61.5306 44.2646 61.4873 44.3495 61.4123C44.4343 61.3372 44.4906 61.2351 44.5086 61.1233L45.42 53.0388C45.432 52.9821 45.4318 52.9234 45.4193 52.8667C45.4068 52.8101 45.3823 52.7568 45.3475 52.7104C45.3127 52.664 45.2684 52.6255 45.2175 52.5977C45.1666 52.5698 45.1103 52.5532 45.0525 52.5488H40.9564C40.8338 52.5634 40.7202 52.6204 40.6352 52.7098C40.5502 52.7993 40.4992 52.9157 40.4909 53.0388L39.5746 61.1233Z" fill="#263238"/>
<path opacity="0.5" d="M40.9466 52.9853L40.0157 61.1482C40.0041 61.1959 40.0039 61.2456 40.015 61.2934C40.0261 61.3411 40.0483 61.3856 40.0798 61.4233C40.1112 61.4609 40.1511 61.4907 40.1961 61.5101C40.2411 61.5296 40.2901 61.5382 40.3391 61.5353H43.813C44.0481 61.5353 44.4744 61.4079 44.4989 61.1776L45.4299 52.9853C45.4299 52.755 45.0575 52.5688 44.8223 52.5688H41.3484C41.2409 52.5738 41.1394 52.6198 41.0647 52.6972C40.99 52.7746 40.9478 52.8777 40.9466 52.9853Z" fill="white"/>
<path d="M48.1595 61.7996L46.0232 58.1739C46.04 57.3859 45.9793 56.5981 45.8419 55.822C45.6558 55.3713 43.5636 54.3521 43.152 54.5089C42.7404 54.6657 42.5935 58.3993 42.9658 58.9186C43.3382 59.438 44.6464 59.9819 44.6464 59.9819L44.5582 60.6923L45.8076 64.4651L48.1595 61.7996Z" fill="#E4897B"/>
<path d="M49.0169 61.3882L48.3114 60.6777L44.9453 64.4505L45.4255 65.9449L49.0169 61.3882Z" fill="#4ECA6E"/>
<path d="M31.9556 53.8032L31.5293 55.3711L32.3965 56.645L34.3172 74.5583L39.5746 73.7841C39.212 59.8249 39.0846 59.7514 37.0561 54.7293L32.3475 54.401L31.9556 53.8032Z" fill="#4ECA6E"/>
<path opacity="0.6" d="M31.9556 53.8032L31.5293 55.3711L32.3965 56.645L34.3172 74.5583L39.5746 73.7841C39.212 59.8249 39.0846 59.7514 37.0561 54.7293L32.3475 54.401L31.9556 53.8032Z" fill="white"/>
<path d="M23.3717 53.8032L28.0411 55.7631L26.8945 57.723L28.0264 76.0625L20.9512 78.1351C20.9512 78.1351 15.8163 64.6609 18.4475 56.6646L23.0826 55.327L23.3717 53.8032Z" fill="#4ECA6E"/>
<path opacity="0.6" d="M27.8453 73.1423L28.0266 76.0478L24.8712 76.9689L20.9515 78.1155C19.5033 74.1307 18.4913 70.0006 17.9333 65.7977C17.556 62.608 17.5658 59.3203 18.4478 56.645L23.0829 55.3074L23.3719 53.8032L28.0413 55.7631L26.8948 57.723L27.3456 65.0039L27.8453 73.1423Z" fill="white"/>
<path opacity="0.2" d="M31.9849 67.4148C31.9849 67.4148 30.2259 69.9773 27.8447 73.1425C26.9235 74.3674 25.8848 75.6805 24.8706 76.9691L20.9508 78.1157C19.5026 74.1309 18.4906 70.0008 17.9326 65.7979C19.8533 63.8723 22.2051 61.54 22.2051 61.54C22.2051 61.54 23.2831 64.8718 22.8078 67.7675L27.3449 64.9894L28.756 64.1271L31.9849 67.4148Z" fill="black"/>
<path d="M28.1533 65.3472L33.0089 61.5353C33.2902 60.7107 33.6358 59.9096 34.0427 59.1393C34.3367 58.7816 38.5945 57.2137 38.9424 57.1794C39.2903 57.1452 38.9424 60.668 38.4084 61.2658C37.8743 61.8636 34.4494 63.0493 34.4494 63.0493L29.3733 67.8461L28.1533 65.3472Z" fill="#E4897B"/>
<path d="M18.4473 56.645C15.5957 58.0757 14.3267 74.1761 19.2803 76.9542C24.2338 79.7323 31.6275 67.1548 31.6275 67.1548L28.7514 64.1023C28.7514 64.1023 22.7247 69.149 21.9996 68.6836C21.2744 68.2181 22.0976 63.2939 22.0976 63.2939C22.0976 63.2939 22.9452 61.824 21.1617 59.4574C19.3783 57.0909 18.4473 56.645 18.4473 56.645Z" fill="#4ECA6E"/>
<path opacity="0.6" d="M18.4473 56.645C15.5957 58.0757 14.3267 74.1761 19.2803 76.9542C24.2338 79.7323 31.6275 67.1548 31.6275 67.1548L28.7514 64.1023C28.7514 64.1023 22.7247 69.149 21.9996 68.6836C21.2744 68.2181 22.0976 63.2939 22.0976 63.2939C22.0976 63.2939 22.9452 61.824 21.1617 59.4574C19.3783 57.0909 18.4473 56.645 18.4473 56.645Z" fill="white"/>
<path d="M31.6812 68.2915L32.5435 67.7722L29.3146 63.0391L28.1289 63.7005L31.6812 68.2915Z" fill="#4ECA6E"/>
</svg>
